<mxfile host="app.diagrams.net" agent="Mozilla/5.0 (Windows NT 10.0; Win64; x64) AppleWebKit/537.36 (KHTML, like Gecko) Chrome/131.0.0.0 Safari/537.36 Edg/131.0.0.0" version="26.0.4">
  <diagram id="Ro86joQ0fEX7BzASFlTt" name="Page-1">
    <mxGraphModel dx="1044" dy="558" grid="1" gridSize="10" guides="1" tooltips="1" connect="1" arrows="1" fold="1" page="1" pageScale="1" pageWidth="850" pageHeight="1100" math="0" shadow="0">
      <root>
        <mxCell id="0" />
        <mxCell id="1" parent="0" />
        <mxCell id="0N0yz1n9mBW53WO5WtRq-1" value="admin" style="shape=umlActor;html=1;verticalLabelPosition=bottom;verticalAlign=top;align=center;" vertex="1" parent="1">
          <mxGeometry x="280" y="225" width="30" height="60" as="geometry" />
        </mxCell>
        <mxCell id="0N0yz1n9mBW53WO5WtRq-2" value="Thêm" style="ellipse;whiteSpace=wrap;html=1;" vertex="1" parent="1">
          <mxGeometry x="410" y="80" width="140" height="70" as="geometry" />
        </mxCell>
        <mxCell id="0N0yz1n9mBW53WO5WtRq-3" value="Quản lý kỹ năng" style="ellipse;whiteSpace=wrap;html=1;" vertex="1" parent="1">
          <mxGeometry x="410" y="220" width="140" height="70" as="geometry" />
        </mxCell>
        <mxCell id="0N0yz1n9mBW53WO5WtRq-5" value="" style="edgeStyle=none;html=1;endArrow=block;endFill=0;endSize=12;verticalAlign=bottom;rounded=0;exitX=0.5;exitY=0.5;exitDx=0;exitDy=0;exitPerimeter=0;entryX=0;entryY=0.5;entryDx=0;entryDy=0;" edge="1" parent="1" source="0N0yz1n9mBW53WO5WtRq-1" target="0N0yz1n9mBW53WO5WtRq-3">
          <mxGeometry width="160" relative="1" as="geometry">
            <mxPoint x="265" y="260" as="sourcePoint" />
            <mxPoint x="420" y="215" as="targetPoint" />
          </mxGeometry>
        </mxCell>
        <mxCell id="0N0yz1n9mBW53WO5WtRq-6" value="Xem chi tiết thông tin người dùng" style="ellipse;whiteSpace=wrap;html=1;" vertex="1" parent="1">
          <mxGeometry x="550" y="380" width="140" height="70" as="geometry" />
        </mxCell>
        <mxCell id="0N0yz1n9mBW53WO5WtRq-9" value="Tìm kiếm" style="ellipse;whiteSpace=wrap;html=1;" vertex="1" parent="1">
          <mxGeometry x="670" y="320" width="140" height="70" as="geometry" />
        </mxCell>
        <mxCell id="0N0yz1n9mBW53WO5WtRq-11" value="&amp;lt;&amp;lt;extend&amp;gt;&amp;gt;" style="edgeStyle=none;html=1;startArrow=open;endArrow=none;startSize=12;verticalAlign=bottom;dashed=1;labelBackgroundColor=none;rounded=0;exitX=1;exitY=1;exitDx=0;exitDy=0;entryX=0;entryY=0.5;entryDx=0;entryDy=0;" edge="1" parent="1" source="0N0yz1n9mBW53WO5WtRq-3" target="0N0yz1n9mBW53WO5WtRq-9">
          <mxGeometry width="160" relative="1" as="geometry">
            <mxPoint x="551" y="238" as="sourcePoint" />
            <mxPoint x="709" y="347" as="targetPoint" />
          </mxGeometry>
        </mxCell>
        <mxCell id="0N0yz1n9mBW53WO5WtRq-12" value="Xóa" style="ellipse;whiteSpace=wrap;html=1;" vertex="1" parent="1">
          <mxGeometry x="660" y="230" width="140" height="70" as="geometry" />
        </mxCell>
        <mxCell id="0N0yz1n9mBW53WO5WtRq-13" value="Sửa" style="ellipse;whiteSpace=wrap;html=1;" vertex="1" parent="1">
          <mxGeometry x="580" y="130" width="140" height="70" as="geometry" />
        </mxCell>
        <mxCell id="0N0yz1n9mBW53WO5WtRq-14" value="&amp;lt;&amp;lt;include&amp;gt;&amp;gt;" style="edgeStyle=none;html=1;endArrow=open;verticalAlign=bottom;dashed=1;labelBackgroundColor=none;rounded=0;entryX=0.5;entryY=0;entryDx=0;entryDy=0;exitX=0.5;exitY=1;exitDx=0;exitDy=0;" edge="1" parent="1" source="0N0yz1n9mBW53WO5WtRq-2" target="0N0yz1n9mBW53WO5WtRq-3">
          <mxGeometry width="160" relative="1" as="geometry">
            <mxPoint x="570" y="475" as="sourcePoint" />
            <mxPoint x="558" y="259" as="targetPoint" />
          </mxGeometry>
        </mxCell>
        <mxCell id="0N0yz1n9mBW53WO5WtRq-15" value="&amp;lt;&amp;lt;include&amp;gt;&amp;gt;" style="edgeStyle=none;html=1;endArrow=open;verticalAlign=bottom;dashed=1;labelBackgroundColor=none;rounded=0;exitX=0;exitY=0.5;exitDx=0;exitDy=0;entryX=1;entryY=0.5;entryDx=0;entryDy=0;" edge="1" parent="1" source="0N0yz1n9mBW53WO5WtRq-12" target="0N0yz1n9mBW53WO5WtRq-3">
          <mxGeometry width="160" relative="1" as="geometry">
            <mxPoint x="610" y="200" as="sourcePoint" />
            <mxPoint x="580" y="240" as="targetPoint" />
          </mxGeometry>
        </mxCell>
        <mxCell id="0N0yz1n9mBW53WO5WtRq-16" value="&amp;lt;&amp;lt;include&amp;gt;&amp;gt;" style="edgeStyle=none;html=1;endArrow=open;verticalAlign=bottom;dashed=1;labelBackgroundColor=none;rounded=0;entryX=0.9;entryY=0.143;entryDx=0;entryDy=0;exitX=0;exitY=1;exitDx=0;exitDy=0;entryPerimeter=0;" edge="1" parent="1" source="0N0yz1n9mBW53WO5WtRq-13" target="0N0yz1n9mBW53WO5WtRq-3">
          <mxGeometry width="160" relative="1" as="geometry">
            <mxPoint x="500" y="170" as="sourcePoint" />
            <mxPoint x="500" y="240" as="targetPoint" />
          </mxGeometry>
        </mxCell>
        <mxCell id="0N0yz1n9mBW53WO5WtRq-17" value="&amp;lt;&amp;lt;extend&amp;gt;&amp;gt;" style="edgeStyle=none;html=1;startArrow=open;endArrow=none;startSize=12;verticalAlign=bottom;dashed=1;labelBackgroundColor=none;rounded=0;entryX=0.217;entryY=0.091;entryDx=0;entryDy=0;entryPerimeter=0;exitX=0.5;exitY=1;exitDx=0;exitDy=0;" edge="1" parent="1" source="0N0yz1n9mBW53WO5WtRq-3" target="0N0yz1n9mBW53WO5WtRq-6">
          <mxGeometry width="160" relative="1" as="geometry">
            <mxPoint x="490" y="300" as="sourcePoint" />
            <mxPoint x="690" y="385" as="targetPoint" />
          </mxGeometry>
        </mxCell>
      </root>
    </mxGraphModel>
  </diagram>
</mxfile>
